<?xml version="1.0" encoding="UTF-8"?>
<svg width="1104px" height="834px" viewBox="0 0 1104 834" version="1.1" xmlns="http://www.w3.org/2000/svg" xmlns:xlink="http://www.w3.org/1999/xlink">
    <!-- Generator: Sketch 53 (72520) - https://sketchapp.com -->
    <title>intro-img</title>
    <desc>Created with Sketch.</desc>
    <defs>
        <linearGradient x1="49.9899601%" y1="100.007353%" x2="49.9899601%" y2="-0.00193859288%" id="linearGradient-1">
            <stop stop-color="#808080" stop-opacity="0.25" offset="0%"></stop>
            <stop stop-color="#808080" stop-opacity="0.12" offset="54%"></stop>
            <stop stop-color="#808080" stop-opacity="0.1" offset="100%"></stop>
        </linearGradient>
    </defs>
    <g id="Page-1" stroke="none" stroke-width="1" fill="none" fill-rule="evenodd">
        <g id="intro-img">
            <ellipse id="Oval" fill="#F36415" fill-rule="nonzero" opacity="0.2" cx="561.68" cy="803.68" rx="430.73" ry="29.88"></ellipse>
            <path d="M93.06,96.12 C66.22,127.54 59.43,167.37 59.06,205.56 C58.8,232.49 62.48,261.7 84.96,281.56 C114.55,307.69 171.36,312.84 186.02,346.23 C199.02,375.9 168.77,405.75 139.71,426.69 C110.65,447.63 77.28,473.27 82.71,504.45 C86.15,524.36 105.02,539.99 123.84,553.11 C159.62,578.11 199.84,599.98 245.18,610.62 C327.44,629.9 416.29,609.94 493.37,579.72 C540.82,561.12 595.91,538.29 643.03,557.42 C655.47,562.47 666.03,570.1 677.5,576.42 C710.85,594.69 751.58,601.42 791.22,607.13 C849.32,615.53 910.38,622.54 966.36,607.39 C1022.34,592.24 1070.72,547.93 1062.15,500.67 C1054.07,456.15 1002.63,427.13 961.64,396.72 C947.18,385.99 932.46,371.77 936.06,356.16 C938.92,343.78 952.38,335.16 964.38,327.16 C1027.54,284.82 1073.96,226.37 1095.3,162.28 C1105.38,132.04 1109.02,97.2 1086.53,71.7 C1068.39,51.13 1037.3,41.25 1007.73,33.12 C952.86,18.03 896.62,5.28 838.91,1.84 C781.2,-1.6 721.58,4.96 670.35,26.73 C645.78,37.18 623.51,50.94 598.7,61 C528.26,89.56 445.26,85.72 366.7,81.21 C338.63,79.6 309.29,76.74 284.92,64.48 C263.92,53.9 251.92,46.32 225.92,45.14 C174.96,42.83 122.24,61.9 93.06,96.12 Z" id="Path" fill="#F36415" fill-rule="nonzero" opacity="0.2"></path>
            <ellipse id="Oval" stroke="#979797" fill="#000000" cx="852" cy="281.5" rx="5" ry="6.5"></ellipse>
            <polygon id="Path" fill="#535461" fill-rule="nonzero" points="473.46 311.36 472.36 313.63 465.23 328.28 390.44 481.85 263.53 792.81 245.39 792.95 372.37 481.85 458.9 304.15 465.23 307.28 472.36 310.81"></polygon>
            <polygon id="Path" fill="#535461" fill-rule="nonzero" points="696.12 792.95 681.19 792.81 554.27 481.85 481.45 332.31 472.36 313.63 471.25 311.36 472.36 310.81 481.45 306.31 485.82 304.15 571.05 481.85"></polygon>
            <rect id="Rectangle" fill="#535461" fill-rule="nonzero" x="465.23" y="262.38" width="16.23" height="530.57"></rect>
            <path d="M471.49,174.97 C460.08989,174.981025 450.851025,184.21989 450.84,195.62 L450.84,203 C450.675237,210.487663 454.575625,217.478149 461.034064,221.270353 C467.492503,225.062556 475.497497,225.062556 481.955936,221.270353 C488.414375,217.478149 492.314763,210.487663 492.15,203 L492.15,195.62 C492.133465,184.218272 482.891734,174.981015 471.49,174.97 Z M486.98,202.97 C486.98,211.530414 480.040414,218.47 471.48,218.47 C462.919586,218.47 455.98,211.530414 455.98,202.97 L455.98,195.59 C455.98,187.029586 462.919586,180.09 471.48,180.09 C480.040414,180.09 486.98,187.029586 486.98,195.59 L486.98,202.97 Z" id="Shape" fill="#535461" fill-rule="nonzero"></path>
            <polygon id="Path" fill="#000000" fill-rule="nonzero" opacity="0.1" points="571.05 481.85 554.27 481.85 481.45 332.31 481.45 481.85 465.23 481.85 465.23 328.28 390.44 481.85 372.37 481.85 458.9 304.15 465.23 307.28 465.23 262.38 481.45 262.38 481.45 306.31 485.82 304.15"></polygon>
            <path d="M492.15,196.36 L492.15,203 C492.314763,210.487663 488.414375,217.478149 481.955936,221.270353 C475.497497,225.062556 467.492503,225.062556 461.034064,221.270353 C454.575625,217.478149 450.675237,210.487663 450.84,203 L450.84,196.36 L456,196.36 L456,203 C456.000001,211.560413 462.939587,218.499999 471.5,218.499999 C480.060413,218.499999 486.999999,211.560413 487,203 L487,196.36 L492.15,196.36 Z" id="Path" fill="#000000" fill-rule="nonzero" opacity="0.1"></path>
            <rect id="Rectangle" fill="#535461" fill-rule="nonzero" x="159.45" y="197.84" width="624.09" height="281.8"></rect>
            <rect id="Rectangle" fill="#FFFFFF" fill-rule="nonzero" x="170.52" y="206.69" width="600.48" height="256.72"></rect>
            <g id="Group" opacity="0.2" transform="translate(229.000000, 234.000000)" fill="#F23D13" fill-opacity="0.6" fill-rule="nonzero">
                <rect id="Rectangle" x="0.82" y="0.6" width="28.39" height="12.93"></rect>
            </g>
            <g id="Group" opacity="0.2" transform="translate(229.000000, 259.000000)" fill="#F23D13" fill-opacity="0.6" fill-rule="nonzero">
                <rect id="Rectangle" x="0.82" y="0.61" width="28.39" height="12.93"></rect>
            </g>
            <g id="Group" opacity="0.2" transform="translate(229.000000, 284.000000)" fill="#F23D13" fill-opacity="0.6" fill-rule="nonzero">
                <rect id="Rectangle" x="0.82" y="0.61" width="28.39" height="12.93"></rect>
            </g>
            <g id="Group" opacity="0.2" transform="translate(229.000000, 309.000000)" fill="#F23D13" fill-opacity="0.6" fill-rule="nonzero">
                <rect id="Rectangle" x="0.82" y="0.61" width="28.39" height="12.93"></rect>
            </g>
            <g id="Group" opacity="0.2" transform="translate(229.000000, 334.000000)" fill="#F23D13" fill-opacity="0.6" fill-rule="nonzero">
                <rect id="Rectangle" x="0.82" y="0.62" width="28.39" height="12.93"></rect>
            </g>
            <g id="Group" opacity="0.2" transform="translate(229.000000, 359.000000)" fill="#F23D13" fill-opacity="0.6" fill-rule="nonzero">
                <rect id="Rectangle" x="0.82" y="0.62" width="28.39" height="12.93"></rect>
            </g>
            <g id="Group" opacity="0.2" transform="translate(229.000000, 384.000000)" fill="#F23D13" fill-opacity="0.6" fill-rule="nonzero">
                <rect id="Rectangle" x="0.82" y="0.62" width="28.39" height="12.93"></rect>
            </g>
            <g id="Group" opacity="0.2" transform="translate(229.000000, 409.000000)" fill="#6C63FF" fill-rule="nonzero">
                <rect id="Rectangle" x="0.82" y="0.62" width="28.39" height="12.93"></rect>
            </g>
            <g id="Group" opacity="0.2" transform="translate(283.000000, 422.000000)" fill="#F23D13" fill-opacity="0.6" fill-rule="nonzero">
                <rect id="Rectangle" x="0.27" y="0.56" width="28.39" height="12.93"></rect>
            </g>
            <g id="Group" opacity="0.2" transform="translate(333.000000, 422.000000)" fill="#F23D13" fill-opacity="0.6" fill-rule="nonzero">
                <rect id="Rectangle" x="0.28" y="0.56" width="28.39" height="12.93"></rect>
            </g>
            <g id="Group" opacity="0.2" transform="translate(383.000000, 422.000000)" fill="#F23D13" fill-opacity="0.6" fill-rule="nonzero">
                <rect id="Rectangle" x="0.28" y="0.56" width="28.39" height="12.93"></rect>
            </g>
            <g id="Group" opacity="0.2" transform="translate(433.000000, 422.000000)" fill="#F23D13" fill-opacity="0.6" fill-rule="nonzero">
                <rect id="Rectangle" x="0.29" y="0.56" width="28.39" height="12.93"></rect>
            </g>
            <g id="Group" opacity="0.2" transform="translate(483.000000, 422.000000)" fill="#F23D13" fill-opacity="0.6" fill-rule="nonzero">
                <rect id="Rectangle" x="0.29" y="0.56" width="28.39" height="12.93"></rect>
            </g>
            <g id="Group" opacity="0.2" transform="translate(533.000000, 422.000000)" fill="#F23D13" fill-opacity="0.6" fill-rule="nonzero">
                <rect id="Rectangle" x="0.3" y="0.56" width="28.39" height="12.93"></rect>
            </g>
            <g id="Group" opacity="0.2" transform="translate(583.000000, 422.000000)" fill="#F23D13" fill-opacity="0.6" fill-rule="nonzero">
                <rect id="Rectangle" x="0.3" y="0.56" width="28.39" height="12.93"></rect>
            </g>
            <g id="Group" opacity="0.2" transform="translate(633.000000, 422.000000)" fill="#F23D13" fill-opacity="0.6" fill-rule="nonzero">
                <rect id="Rectangle" x="0.31" y="0.56" width="28.39" height="12.93"></rect>
            </g>
            <g id="Group" opacity="0.2" transform="translate(683.000000, 422.000000)" fill="#F23D13" fill-opacity="0.6" fill-rule="nonzero">
                <rect id="Rectangle" x="0.31" y="0.56" width="28.39" height="12.93"></rect>
            </g>
            <rect id="Rectangle" fill="#ED453A" fill-rule="nonzero" opacity="0.5" x="283.27" y="328.58" width="28.39" height="81.04"></rect>
            <rect id="Rectangle" fill="#ED453A" fill-rule="nonzero" opacity="0.5" x="333.28" y="291.08" width="28.39" height="118.55"></rect>
            <rect id="Rectangle" fill="#ED453A" fill-rule="nonzero" opacity="0.5" x="383.28" y="259.61" width="28.39" height="150.02"></rect>
            <rect id="Rectangle" fill="#ED453A" fill-rule="nonzero" opacity="0.5" x="433.29" y="275.92" width="28.39" height="133.7"></rect>
            <rect id="Rectangle" fill="#ED453A" fill-rule="nonzero" opacity="0.5" x="483.29" y="247.54" width="28.39" height="162.09"></rect>
            <g id="Group" opacity="0.2" transform="translate(533.000000, 309.000000)" fill="#F13C12" fill-opacity="0.3" fill-rule="nonzero">
                <rect id="Rectangle" x="0.3" y="0.61" width="28.39" height="100.01"></rect>
            </g>
            <g id="Group" opacity="0.2" transform="translate(583.000000, 309.000000)" fill="#F13C12" fill-opacity="0.3" fill-rule="nonzero">
                <rect id="Rectangle" x="0.3" y="0.61" width="28.39" height="100.01"></rect>
            </g>
            <g id="Group" opacity="0.2" transform="translate(633.000000, 309.000000)" fill="#F13C12" fill-opacity="0.3" fill-rule="nonzero">
                <rect id="Rectangle" x="0.31" y="0.61" width="28.39" height="100.01"></rect>
            </g>
            <g id="Group" opacity="0.2" transform="translate(683.000000, 309.000000)" fill="#F13C12" fill-opacity="0.3" fill-rule="nonzero">
                <rect id="Rectangle" x="0.31" y="0.61" width="28.39" height="100.01"></rect>
            </g>
            <polygon id="Path" fill="#535461" fill-rule="nonzero" points="680.05 309.39 436.95 324.35 436.95 329.09 685.23 319.24"></polygon>
            <path d="M967.87,408.15 C967.87,408.15 980.59,387.23 977.21,354.41 C973.83,321.59 961.6,268.47 961.6,268.47 C961.6,268.47 966.91,238.71 938.11,234.53 C938.11,234.53 920.21,231.2 907.41,223.15 C902.65,220.15 898.6,216.52 896.41,212.15 C896.41,212.15 896.24,212.64 895.91,213.54 C895.626882,213.090024 895.366554,212.626106 895.13,212.15 C895.13,212.15 895.06,212.33 894.95,212.65 L890.06,205.03 C890.06,205.03 889.39,205.74 888.26,206.91 C886.293313,204.086777 884.618072,201.071343 883.26,197.91 C884.475873,197.616369 885.668971,197.235379 886.83,196.77 C887.940124,196.402775 888.940572,195.763313 889.74,194.91 C890.440765,193.936866 890.893834,192.807624 891.06,191.62 C891.839501,187.819071 892.06183,183.924949 891.72,180.06 C891.45,177.06 890.84,174.06 891.05,171.01 C891.27,167.76 892.42,164.62 892.58,161.36 C892.86,155.62 890.01,150.16 886.49,145.61 C884.39,142.9 882.03,140.38 880.21,137.48 C878.63,134.96 877.48,132.18 875.78,129.73 C871.78,124.03 865.11,120.67 858.27,119.48 C851.43,118.29 844.39,119.03 837.54,120.16 C831.54,121.16 825.54,122.61 819.54,122.96 C814.3,123.26 810.03,121.49 805.23,124.96 C802.013524,127.331426 799.97907,130.977401 799.65,134.96 C799.572008,135.630132 799.622923,136.308998 799.8,136.96 C800.083212,137.634507 800.417517,138.286402 800.8,138.91 C802.93,143.11 799.69,148.1 800.11,152.79 C800.637173,157.059847 804.032846,160.405827 808.31,160.87 C808.12,161.27 807.91,161.66 807.73,162.07 C802.342352,174.241836 803.123335,188.259817 809.829701,199.75786 C816.536068,211.255902 828.353015,218.83703 841.6,220.14 L843.46,221.57 C847.66,224.82 852.38,228.71 856.93,232.94 L856.84,233.01 L856.1,232.59 C854.714767,233.685533 853.258221,234.687744 851.74,235.59 C847.53,238.17 840.74,241.52 833.1,241.9 C833.1,241.9 819.42,249.15 814.71,273.06 C807.95,279.12 793.48,290.06 774.36,292.91 C747.49,296.91 714.36,298.22 714.36,298.22 C714.36,298.22 714.09,298.7 713.71,299.58 L710.65,299.02 C710.65,299.02 710.65,299.39 710.52,300.02 L709.32,299.48 C699.83,295.33 680.87,289.28 678.47,305.95 C675.25,328.31 696.57,325.74 696.57,325.74 C700.785875,324.13825 705.105852,322.825218 709.5,321.81 L710.69,321.58 C710.89218,322.163152 711.174918,322.715164 711.53,323.22 L714.43,323.22 C715.437374,325.304358 716.6536,327.281145 718.06,329.12 L785.64,327.64 C785.64,327.64 797.19,325.12 807.85,326.72 C803.2,361.48 797.71,399.6 797.71,399.6 C797.71,399.6 786.21,459.97 794.26,466.28 C798.932215,464.721146 803.694193,463.445497 808.52,462.46 C808.593246,466.190367 808.988042,469.907471 809.7,473.57 L814.85,507.28 C814.85,507.28 816.85,541.72 823.54,562.28 L829.44,590.38 L834.38,611.62 L837.16,647.67 C840.977648,662.941708 843.737529,678.458521 845.42,694.11 C848.03,718.33 862.2,757.47 864.09,762.62 C859.25,769.47 849.31,781.09 836.84,782.29 C819.04,784.01 818.61,794.74 831.05,798.6 C843.49,802.46 869.67,798.6 869.67,798.6 L906.59,789.47 C905.48,796.28 904.9,801.66 905.71,802.24 C908.07,803.96 943.9,813.24 945.19,798.38 C945.29,797.153333 945.38,795.963333 945.46,794.81 C945.993332,785.290658 944.72096,775.756349 941.71,766.71 C941.42,765.82 941.16,764.92 940.93,764.02 C941.46144,763.425893 941.949371,762.794257 942.39,762.13 C942.39,762.13 944.97,722.01 946.9,707.63 C947.05,706.48 947.15,705.08 947.2,703.5 C948.09,686.26 941.8,640.91 941.8,640.91 C941.8,640.91 934.03,611.41 934.32,597.85 C934.364528,596.723224 934.556151,595.607103 934.89,594.53 C934.89,594.53 934.89,594.26 934.79,593.81 C934.79,593.62 934.88,593.42 934.94,593.24 C934.94,593.24 931,566.24 931.55,550.18 C931.626904,547.784247 931.96218,545.403793 932.55,543.08 C933.175267,540.029452 933.493521,536.923962 933.5,533.81 C934,522.81 933.42,503.81 932.62,485.99 C932.71,485.69 932.8,485.39 932.87,485.04 C933.031329,483.620948 932.863662,482.183804 932.38,480.84 C932.32,479.69 932.27,478.55 932.21,477.42 C932.54,476.29 932.81,475.09 933.05,473.85 L933.57,473.85 L933.57,473.92 C933.57,473.92 967.19,472.31 974.92,463.3 C974.92,463.3 967.11,439.03 962.78,419.3 L967.87,408.15 Z M822.99,332.66 L822.46,332.47 C823.31,329.47 824.32,325.98 825.46,322.32 C824.49,326.28 823.65,329.88 822.99,332.66 Z M857.11,233.17 L857.26,233.31 L857.1,233.22 L857.11,233.17 Z M899.11,753.69 C897.3,747.46 890.11,722.06 890.34,709.95 C890.390219,708.897422 890.575056,707.855611 890.89,706.85 C891.55674,704.655304 891.893752,702.373735 891.89,700.08 C892.61,687.44 887.77,664.79 887.77,664.79 C887.77,664.79 876.94,634.24 877.77,609.98 C877.77,609.37 877.84,608.76 877.88,608.15 C878.06,605.85 878.2,603.36 878.3,600.73 L878.3,600.68 C878.71,591.31 878.62,580.03 878.35,569.51 L878.29,569.12 C877.92,555.19 877.23,542.65 876.94,537.69 C877.94,544.86 884.34,589.49 887.1,596.79 C887.1,596.79 888.61,617.38 895.47,634.79 L902.99,680.05 C902.99,680.05 904.92,733.91 908.13,749.14 C909.57,755.92 910.79,760.49 911.7,763.47 C910.4,769.54 908.3,779.71 906.89,788.13 C906.06,782.64 903.14,761.72 899.12,753.69 L899.11,753.69 Z" id="Shape" fill="url(#linearGradient-1)" fill-rule="nonzero"></path>
            <path d="M866.96,755.08 C866.96,755.08 854.41,777.83 836.76,779.53 C819.11,781.23 818.69,791.86 831.02,795.69 C843.35,799.52 869.3,795.69 869.3,795.69 L906.3,786.55 C906.3,786.55 901.83,749.97 895.88,748.06 C889.93,746.15 866.96,755.08 866.96,755.08 Z" id="Path" fill="#4A4A4A" fill-rule="nonzero"></path>
            <path d="M912.06,755.5 C912.06,755.5 902.7,797.6 905.06,799.31 C907.42,801.02 942.91,810.15 944.19,795.48 C944.29,794.246667 944.38,793.066667 944.46,791.94 C944.984067,782.505269 943.721959,773.056421 940.74,764.09 C939.74,761.09 939.04,757.88 939.3,755.5 C939.89,749.55 912.06,755.5 912.06,755.5 Z" id="Path" fill="#4A4A4A" fill-rule="nonzero"></path>
            <path d="M900.45,222.49 C900.45,222.49 871.74,293.01 876.85,270.36 C880.23,255.36 858.38,235.43 843.27,223.72 C835.58,217.72 829.64,213.91 829.64,213.91 C829.64,213.91 883.54,151.07 879.72,178.18 C878.67226,185.604932 879.689445,193.175003 882.66,200.06 C888.61,214.2 900.45,222.49 900.45,222.49 Z" id="Path" fill="#FEC2BE" fill-rule="nonzero"></path>
            <path d="M717.06,322.67 C715.54,322.28 713.06,322.53 710.49,323.08 C706.136896,324.085308 701.857058,325.384962 697.68,326.97 C697.68,326.97 676.55,329.52 679.74,307.36 C682.11,290.84 700.9,296.84 710.31,300.94 C713.51,302.35 715.63,303.53 715.63,303.53 L717.06,322.67 Z" id="Path" fill="#FFB9B9" fill-rule="nonzero"></path>
            <path d="M717.06,322.67 C715.54,322.28 713.06,322.53 710.49,323.08 C708.19,317.28 709.94,303.53 710.31,300.94 C713.51,302.35 715.63,303.53 715.63,303.53 L717.06,322.67 Z" id="Path" fill="#000000" fill-rule="nonzero" opacity="0.1"></path>
            <path d="M717.15,301.51 L711.62,300.51 C711.62,300.51 708.79,319.51 712.49,324.51 L718.85,324.51 L717.15,301.51 Z" id="Path" fill="#CBCDDA" fill-rule="nonzero"></path>
            <path d="M828.06,336.18 C828.06,336.18 811.16,326.07 809.14,338.83 C807.12,351.59 804.46,373.39 804.46,373.39 L799.78,401.14 L793.72,456.74 L794.57,466.2 C794.57,466.2 812.57,460.14 816.79,462.27 C821.01,464.4 824.45,438.88 824.45,438.88 L831.45,412.51 L832.51,356.59 L828.06,336.18 Z" id="Path" fill="#000000" fill-rule="nonzero"></path>
            <path d="M818.95,270.68 C818.95,270.68 801.41,290.46 774.78,294.44 C748.15,298.42 715.29,299.71 715.29,299.71 C715.29,299.71 707,314.54 718.96,330.33 L785.96,328.85 C785.96,328.85 800.79,325.63 812.28,328.85 L818.95,270.68 Z" id="Path" fill="#000000" fill-rule="nonzero"></path>
            <path d="M879.82,199.45 C873.28,213.45 861.91,223.77 845.42,223.77 C844.69,223.77 843.98,223.77 843.27,223.72 C835.58,217.72 829.64,213.91 829.64,213.91 C829.64,213.91 883.54,151.07 879.72,178.18 C878.54,186.48 877.19,193.22 879.82,199.45 Z" id="Path" fill="#000000" fill-rule="nonzero" opacity="0.1"></path>
            <path d="M886.5,181.4 C886.483433,204.090769 868.077452,222.472876 845.38668,222.459992 C822.695909,222.447109 804.310814,204.044112 804.320014,181.353339 C804.329214,158.662566 822.729225,140.274484 845.42,140.28 C856.328556,140.258668 866.795884,144.585374 874.505658,152.302655 C882.215432,160.019936 886.531948,170.49147 886.5,181.4 Z" id="Path" fill="#FEC2BE" fill-rule="nonzero"></path>
            <path d="M911.61,432.5 C911.61,432.5 819.97,440.59 816.61,428.89 C813.25,417.19 825.96,385.51 825.96,385.51 L821.82,341.28 L821.67,339.59 C821.67,339.59 833.15,291.74 832.73,287.92 C832.33,284.48 851.21,244.33 855.09,236.12 C855.55,235.17 855.79,234.65 855.79,234.65 L856.52,235.07 L856.84,235.26 L861.33,237.88 L879.06,233.68 L900.43,222.49 L902.43,344.9 L911.61,432.5 Z" id="Path" fill="#FFFFFF" fill-rule="nonzero"></path>
            <circle id="Oval" fill="#000000" cx="859" cy="280" r="2"></circle>
            <circle id="Oval-Copy-5" fill="#000000" cx="863" cy="266" r="2"></circle>
            <circle id="Oval-Copy" fill="#000000" cx="848" cy="358" r="2"></circle>
            <circle id="Oval-Copy-2" fill="#000000" cx="848" cy="334" r="2"></circle>
            <circle id="Oval-Copy-3" fill="#000000" cx="851" cy="314" r="2"></circle>
            <circle id="Oval-Copy-4" fill="#000000" cx="854" cy="298" r="2"></circle>
            <path d="M889.5,208.59 C889.5,208.59 867.81,231.59 860.15,234.32 C860.15,234.32 863.98,251.76 867.81,255.16 C867.81,255.16 890.57,231.95 894.6,230.07 L897.98,221.8 L889.5,208.59 Z" id="Path" fill="#000000" fill-rule="nonzero" opacity="0.1"></path>
            <path d="M889.5,207.28 C889.5,207.28 867.81,230.28 860.15,233.01 C860.15,233.01 863.98,250.45 867.81,253.85 C867.81,253.85 890.57,230.64 894.6,228.76 L897.98,220.5 L889.5,207.28 Z" id="Path" fill="#FFFFFF" fill-rule="nonzero"></path>
            <path d="M857.06,234.65 L856.84,235.25 L849.89,253.88 L837.46,289.03 C837.46,289.03 837.35,289.39 837.13,290.03 C835.07,296.43 824,331.16 821.82,341.25 L821.67,339.56 C821.67,339.56 833.15,291.71 832.73,287.89 C832.33,284.45 851.21,244.3 855.09,236.09 C855.71,235.67 856.19,235.31 856.52,235.04 L857.06,234.65 Z" id="Path" fill="#000000" fill-rule="nonzero" opacity="0.1"></path>
            <path d="M855.79,234.64 L848.61,253.88 L836.18,289.03 C836.18,289.03 836.07,289.39 835.85,290.03 C833.67,296.85 821.24,335.78 820.24,342.9 C819.11,350.72 803.48,392.99 803.48,392.99 L794.55,466.18 C786.55,459.97 797.91,400.18 797.91,400.18 C797.91,400.18 810.67,311.51 813.69,282.01 C816.71,252.51 833,243.89 833,243.89 C840.52,243.51 847.3,240.19 851.47,237.64 C852.975866,236.738348 854.419147,235.73607 855.79,234.64 Z" id="Path" fill="#000000" fill-rule="nonzero"></path>
            <path d="M945.84,705.53 C943.93,719.78 941.38,759.53 941.38,759.53 C932.45,772.92 912.67,765.69 912.67,765.69 C912.67,765.69 910.55,761.69 907.36,746.55 C904.17,731.41 902.26,678.08 902.26,678.08 L894.81,633.28 C888.01,616.05 886.52,595.64 886.52,595.64 C883.52,587.77 876.31,536.1 876.31,536.1 C876.31,536.1 879.31,582.45 877.38,606.91 C875.45,631.37 887.15,664.28 887.15,664.28 C887.15,664.28 893.75,695.12 890.34,704.69 C886.93,714.26 898.85,753.8 898.85,753.8 C897.85,765.29 863.99,760.61 863.99,760.61 C863.99,760.61 848.06,717.86 845.27,692.13 C843.598043,676.627005 840.861583,661.25739 837.08,646.13 L834.32,610.4 L829.42,589.28 L823.58,561.43 C816.98,541.02 814.97,506.89 814.97,506.89 L809.86,473.4 C806.52,456.84 810.86,437.4 813.74,427.23 C814.99,422.82 815.99,420.13 815.99,420.13 C818.92,422.21 835.7,424.65 844.38,426.63 C849.130417,427.724857 854.015939,428.115698 858.88,427.79 C880.824988,426.047538 902.534443,422.066856 923.67,415.91 C925.1,415.48 925.86,415.23 925.86,415.23 L926.31,419.06 L927.37,428.18 L929.26,444.37 C929.26,444.37 935,530.7 931.6,542.37 C928.2,554.04 933.94,593.37 933.94,593.37 C930.75,602.7 940.74,640.62 940.74,640.62 C940.74,640.62 947.76,691.28 945.84,705.53 Z" id="Path" fill="#000000" fill-rule="nonzero" opacity="0.1"></path>
            <path d="M945.84,704.28 C943.93,718.53 941.38,758.28 941.38,758.28 C932.45,771.68 912.67,764.44 912.67,764.44 C912.67,764.44 910.55,760.44 907.36,745.31 C904.17,730.18 902.26,676.83 902.26,676.83 L894.81,631.97 C888.06,614.74 886.52,594.28 886.52,594.28 C883.52,586.41 876.31,534.74 876.31,534.74 C876.31,534.74 879.31,581.09 877.38,605.55 C875.45,630.01 887.15,662.96 887.15,662.96 C887.15,662.96 893.75,693.8 890.34,703.37 C886.93,712.94 898.85,752.49 898.85,752.49 C897.85,763.97 863.99,759.29 863.99,759.29 C863.99,759.29 848.06,716.59 845.27,690.85 C843.598043,675.347005 840.861583,659.97739 837.08,644.85 L834.32,609.13 L829.42,588.08 L823.58,560.23 C816.98,539.81 814.97,505.68 814.97,505.68 L809.86,472.19 C806.52,455.63 810.86,436.19 813.74,426.02 C814.99,421.62 815.99,418.93 815.99,418.93 C818.92,421.01 835.7,423.44 844.38,425.42 C849.129657,426.519768 854.015908,426.910668 858.88,426.58 C880.824988,424.837538 902.534443,420.856856 923.67,414.7 L925.86,414.03 L926.31,417.85 L927.37,426.98 L929.26,443.17 C929.26,443.17 935,529.49 931.6,541.17 C928.2,552.85 933.94,592.17 933.94,592.17 C930.75,601.49 940.74,639.41 940.74,639.41 C940.74,639.41 947.76,690.01 945.84,704.28 Z" id="Path" fill="#000000" fill-rule="nonzero"></path>
            <path d="M886.5,181.4 C886.512599,188.585416 884.636609,195.647967 881.06,201.88 C874.66,203.01 867.85,201.76 863.06,197.53 C859.78,194.64 857.66,190.69 854.84,187.34 C853.014599,185.281297 851.053556,183.346981 848.97,181.55 C847.60957,180.194763 846.04779,179.058004 844.34,178.18 C842.59933,177.300724 840.549272,177.278561 838.79,178.12 C836.53,179.38 835.79,182.19 834.48,184.43 C833.494735,186.352985 831.808701,187.824238 829.77,188.54 C827.677519,189.209344 825.393254,188.434398 824.14,186.63 C822.75,184.24 823.77,180.51 821.44,179.05 C820.825401,178.74652 820.190554,178.485898 819.54,178.27 C816.54,176.91 816.19,172.88 815.93,169.58 C815.8,167.96 815.45,166.13 814.09,165.26 C812.73,164.39 810.94,164.83 809.32,164.86 C808.840681,164.878866 808.360794,164.841951 807.89,164.75 C815.760528,147.008396 834.971856,137.193518 853.960046,141.213268 C872.948235,145.233019 886.53416,161.990989 886.54,181.4 L886.5,181.4 Z" id="Path" fill="#000000" fill-rule="nonzero" opacity="0.1"></path>
            <path d="M805.37,127.96 C802.175318,130.317162 800.158338,133.942619 799.84,137.9 C799.764237,138.5536 799.815166,139.215677 799.99,139.85 C800.269125,140.523201 800.603605,141.172092 800.99,141.79 C803.09,145.96 799.88,150.9 800.29,155.55 C800.865389,160.093109 804.710763,163.51122 809.29,163.55 C810.91,163.55 812.69,163.07 814.06,163.95 C815.43,164.83 815.77,166.65 815.9,168.27 C816.16,171.57 816.49,175.6 819.5,176.96 C820.14864,177.18103 820.783157,177.441516 821.4,177.74 C823.74,179.2 822.72,182.94 824.11,185.32 C825.363254,187.124398 827.647519,187.899344 829.74,187.23 C831.774786,186.517156 833.457566,185.049199 834.44,183.13 C835.73,180.88 836.5,178.13 838.76,176.82 C840.516695,175.970818 842.568889,175.989306 844.31,176.87 C846.018129,177.751602 847.579867,178.891704 848.94,180.25 C851.025971,182.044361 852.987185,183.978847 854.81,186.04 C857.63,189.38 859.75,193.33 863.03,196.22 C869.21,201.65 878.67,202.22 886.29,199.09 C887.389796,198.723255 888.382353,198.091316 889.18,197.25 C889.875629,196.282497 890.325243,195.160177 890.49,193.98 C891.263752,190.21549 891.486077,186.358483 891.15,182.53 C890.88,179.53 890.27,176.53 890.48,173.53 C890.69,170.31 891.84,167.2 892,163.98 C892.28,158.28 889.45,152.87 886,148.36 C883.92,145.67 881.58,143.18 879.78,140.3 C878.21,137.8 877.07,135.05 875.39,132.63 C871.45,126.98 864.81,123.63 858.03,122.46 C851.25,121.29 844.28,122.01 837.49,123.14 C831.57,124.14 825.61,125.56 819.61,125.91 C814.36,126.28 810.13,124.51 805.37,127.96 Z" id="Path" fill="#472727" fill-rule="nonzero"></path>
            <path d="M855.79,234.64 L848.61,253.88 L836.18,289.03 C836.18,289.03 836.07,289.39 835.85,290.03 L835.85,290.08 L851.49,237.62 C852.988418,236.724032 854.424983,235.72846 855.79,234.64 Z" id="Path" fill="#000000" fill-rule="nonzero" opacity="0.1"></path>
            <path d="M933.41,454.83 C933.41,454.83 934.15,478.11 927.88,483.96 L911.19,452.49 L925.19,445.68 L933.41,454.83 Z" id="Path" fill="#FFB9B9" fill-rule="nonzero"></path>
            <path d="M972.37,463.33 C964.71,472.26 931.37,473.86 931.37,473.86 L898.37,421.86 C898.37,421.86 890.56,416.44 875.89,392.03 C861.22,367.62 861.7,348.82 862.52,334.78 C863.34,320.74 872.52,280.39 872.52,280.39 C873.95,271.31 894.52,214.39 894.52,214.39 C896.68,218.7 900.7,222.3 905.4,225.27 C918.1,233.27 935.83,236.55 935.83,236.55 C964.39,240.7 959.12,270.2 959.12,270.2 C959.12,270.2 959.44,384.87 957.68,398.59 C955.92,412.31 972.37,463.33 972.37,463.33 Z" id="Path" fill="#000000" fill-rule="nonzero" opacity="0.1"></path>
            <polygon id="Path" fill="#CBCDDA" fill-rule="nonzero" points="933.84 459.29 932.88 467.8 921.29 463.55 912.79 450.68 919.17 445.68"></polygon>
            <path d="M933.43,426.33 L927.37,426.95 L868.94,432.79 C859.556888,433.732421 850.085617,433.267284 840.84,431.41 L813.74,425.99 C814.99,421.59 815.99,418.9 815.99,418.9 C818.92,420.98 835.7,423.41 844.38,425.39 C849.129657,426.489768 854.015908,426.880668 858.88,426.55 C880.824988,424.807538 902.534443,420.826856 923.67,414.67 L926.31,417.82 L933.43,426.33 Z" id="Path" fill="#000000" fill-rule="nonzero" opacity="0.1"></path>
            <g id="Group" opacity="0.1" transform="translate(815.000000, 414.000000)" fill="#000000" fill-rule="nonzero">
                <path d="M1.6,5.22 C1.40701004,5.12480093 1.21999718,5.01793644 1.04,4.9 C1.04,4.9 1.04,4.96 0.98,5.05 L1.6,5.22 Z" id="Path"></path>
                <path d="M125.79,225.4 C125.79,225.4 115.79,187.48 118.99,178.16 C118.99,178.16 113.25,138.86 116.66,127.16 C120.07,115.46 114.31,29.16 114.31,29.16 L112.42,12.97 L111.36,3.84 L110.92,0.02 L108.72,0.69 L107.36,1.09 L107.53,2.57 L108.59,11.69 L110.48,27.88 C110.48,27.88 116.22,114.21 112.83,125.88 C109.44,137.55 115.16,176.88 115.16,176.88 C111.97,186.21 121.96,224.12 121.96,224.12 C121.96,224.12 128.96,274.74 127.07,288.98 C125.18,303.22 122.6,342.98 122.6,342.98 C116.08,352.77 103.77,351.55 97.6,350.18 L97.71,350.42 C97.71,350.42 117.49,357.66 126.42,344.26 C126.42,344.26 128.97,304.49 130.89,290.26 C132.81,276.03 125.79,225.4 125.79,225.4 Z" id="Path"></path>
                <path d="M75.4,289.41 C78.8,279.84 72.21,249 72.21,249 C72.21,249 60.52,216 62.43,191.59 C63.23,181.4 63.18,167.42 62.84,154.59 C60.13,138.04 57.53,119.59 57.53,119.59 C57.53,119.59 60.53,165.94 58.61,190.39 C56.69,214.84 68.38,247.81 68.38,247.81 C68.38,247.81 74.98,278.64 71.57,288.21 C68.16,297.78 80.06,337.28 80.06,337.28 C79.21,346.48 57.36,345.28 48.69,344.48 L49.02,345.36 C49.02,345.36 82.83,350.04 83.89,338.56 C83.91,338.53 72,298.98 75.4,289.41 Z" id="Path"></path>
            </g>
            <path d="M973.64,463.33 C965.99,472.26 932.64,473.86 932.64,473.86 L899.64,421.86 C899.64,421.86 891.83,416.44 877.15,392.03 C862.47,367.62 862.97,348.82 863.78,334.78 C864.59,320.74 873.78,280.39 873.78,280.39 C875.21,271.31 895.78,214.39 895.78,214.39 C897.93,218.7 901.95,222.3 906.66,225.27 C919.36,233.27 937.09,236.55 937.09,236.55 C965.64,240.7 960.37,270.2 960.37,270.2 C960.37,270.2 960.69,384.87 958.93,398.59 C957.17,412.31 973.64,463.33 973.64,463.33 Z" id="Path" fill="#000000" fill-rule="nonzero"></path>
            <path d="M901.89,242.61 L894.71,245.28 L899.49,248.63 L863.79,334.75 C864.62,320.75 873.79,280.36 873.79,280.36 C875.22,271.28 895.79,214.36 895.79,214.36 C897.94,218.67 901.96,222.27 906.67,225.24 L901.89,242.61 Z" id="Path" fill="#000000" fill-rule="nonzero" opacity="0.1"></path>
            <polygon id="Path" fill="#000000" fill-rule="nonzero" opacity="0.1" points="910.5 396.03 947.02 386.62 951.81 401.45 914.49 410.55"></polygon>
            <path d="M931.39,248.67 C931.39,248.67 914.8,264.28 921.06,299.07 C927.32,333.86 937.33,371.63 937.33,371.63 L910.33,446.43 C910.33,446.43 929.15,466.05 938.4,468.43 L965.35,408.62 C965.35,408.62 977.95,387.89 974.6,355.36 C971.25,322.83 959.13,270.19 959.13,270.19 C959.13,270.19 959.14,238.15 931.39,248.67 Z" id="Path" fill="#000000" fill-rule="nonzero" opacity="0.1"></path>
            <path d="M932.66,248.67 C932.66,248.67 916.06,264.28 922.3,299.07 C928.54,333.86 938.56,371.63 938.56,371.63 L911.56,446.43 C911.56,446.43 930.38,466.05 939.63,468.43 L966.63,408.62 C966.63,408.62 979.23,387.89 975.88,355.36 C972.53,322.83 960.41,270.19 960.41,270.19 C960.41,270.19 960.41,238.15 932.66,248.67 Z" id="Path" fill="#000000" fill-rule="nonzero"></path>
            <path d="M912.46,448.02 C912.46,448.02 933.51,477.16 931.92,484.92 C930.33,492.68 924.16,488.53 924.16,488.53 L915.87,477.16 L908.42,455.89 C908.42,455.89 909.15,446.71 912.46,448.02 Z" id="Path" fill="#000000" fill-rule="nonzero" opacity="0.1"></path>
            <path d="M909.91,448.02 C909.91,448.02 930.91,477.16 929.37,484.92 C927.83,492.68 921.61,488.53 921.61,488.53 L913.31,477.16 L905.87,455.89 C905.87,455.89 906.6,446.71 909.91,448.02 Z" id="Path" fill="#000000" fill-rule="nonzero" opacity="0.1"></path>
            <path d="M911.19,448.02 C911.19,448.02 932.19,477.16 930.64,484.92 C929.09,492.68 922.88,488.53 922.88,488.53 L914.59,477.16 L907.15,455.89 C907.15,455.89 907.87,446.71 911.19,448.02 Z" id="Path" fill="#000000" fill-rule="nonzero"></path>
            <g id="Group-2" transform="translate(0.000000, 143.000000)" fill-rule="nonzero">
                <path d="M219.353443,257.326657 C219.353443,257.326657 242.643476,242.016266 253.902996,249.599283 C265.162517,257.1823 283.548852,267.791246 265.448371,275.515639 C247.347889,283.240031 222.35986,281.747956 222.35986,281.747956 L219.353443,257.326657 Z" id="Path-Copy-2" fill="#FEC2BE" transform="translate(246.209474, 264.677386) rotate(30.000000) translate(-246.209474, -264.677386) "></path>
                <path d="M133.579756,125.497462 L136.131585,122.555584 C136.131585,122.555584 149.230976,143.301777 150.608963,151.124112 C151.986951,158.946447 153.739207,167.942132 153.739207,167.942132 C153.739207,167.942132 157.141646,178.145178 159.217134,182.617513 C161.292622,187.089848 163.334085,191.426142 163.52122,193.381726 C163.708354,195.33731 162.738659,199.639594 166.923659,202.377411 C171.108659,205.115228 172.027317,212.580457 172.027317,212.580457 C172.027317,212.580457 186.895976,227.068782 194.721585,227.459898 C202.547195,227.851015 225.071341,231.762183 224.28878,235.67335 C223.50622,239.584518 233.679512,241.931218 237.779451,242.900508 C241.87939,243.869797 211.359512,255.620305 229.17128,270.686802 C229.17128,270.686802 217.824146,273.033503 216.650305,275.788325 C215.476463,278.543147 203.533902,274.223858 203.533902,274.223858 C203.533902,274.223858 200.999085,268.170051 192.186768,267.778934 C183.374451,267.387817 178.883232,263.459645 178.883232,262.881472 C178.883232,262.303299 170.070915,257.405838 165.171402,256.079442 C160.27189,254.753046 153.824268,254.123858 153.620122,252.763452 C153.415976,251.403046 124.274085,125.599492 124.274085,125.599492 L133.579756,125.497462 Z" id="Path" fill="#192534"></path>
                <path d="M103.093902,668.384518 C77.2693902,673.230964 72.5570122,653.420051 72.5570122,653.420051 C72.5570122,653.420051 69.3417073,635.802792 68.1678659,634.493401 C67.8622119,633.980958 67.7880346,633.363073 67.9637195,632.792893 C68.6600473,629.806081 69.9501991,626.989754 71.757439,624.511421 C73.3735976,622.606853 72.0466463,614.682487 72.0466463,614.682487 L101.98811,607.047208 C103.262515,609.877203 104.248528,612.828306 104.93122,615.855838 C105.220427,618.64467 109.626585,631.262437 109.184268,633.013959 C108.741951,634.765482 111.089634,640.207107 111.378841,642.995939 C111.668049,645.784772 115.342683,649.9 115.648902,651.362437 C116.137,652.682504 116.705126,653.971611 117.350122,655.222589 C118.141664,657.158864 118.778772,659.15468 119.255488,661.191371 C120.565427,667.347208 103.093902,668.384518 103.093902,668.384518 Z" id="Path" fill="#FFFFFF"></path>
                <path d="M195.282988,467.078426 C192.050671,471.907868 188.376037,493.045178 188.376037,493.045178 C186.971383,495.827956 186.171321,498.876195 186.028354,501.989848 C186.181463,506.105076 183.680671,513.58731 183.680671,513.58731 L175.531829,543.958376 C175.531829,543.958376 176.416463,552.035787 173.337256,557.749492 C170.258049,563.463198 170.547256,561.711675 172.010305,571.693655 C173.473354,581.675635 170.309085,590.909391 164.967256,593.800254 C159.625427,596.691117 167.314939,603.629188 167.314939,603.629188 C167.314939,603.629188 133.545732,612.726904 126.485671,607.149239 C119.42561,601.571574 130.160305,573.98934 130.160305,573.98934 C130.160305,573.98934 128.459085,550.794416 129.564878,547.427411 C130.670671,544.060406 135.740305,515.287817 135.740305,515.287817 C135.740305,515.287817 138.819512,502.227919 137.645671,499.983249 C136.471829,497.738579 138.377195,491.480711 138.377195,491.480711 C138.377195,491.480711 143.361768,484.423604 142.919451,482.229949 C142.477134,480.036294 144.399512,476.074112 144.399512,476.074112 C144.399512,476.074112 129.42878,453.185279 130.789756,448.86599 C132.150732,444.546701 130.211341,437.727665 130.211341,437.727665 C130.211341,437.727665 128.322988,434.479695 126.043354,430.602538 C123.253354,425.841117 119.884939,420.127411 118.762134,418.358883 C117.316098,416.080203 113.84561,406.45533 111.957256,400.911675 C111.140671,398.54797 110.59628,396.932487 110.59628,396.932487 C110.59628,396.932487 108.231585,440.074365 106.190122,444.546701 C104.148659,449.019036 101.086463,483.658376 101.086463,483.658376 C99.9448547,486.756673 99.4414244,490.053629 99.6064024,493.351269 C99.912622,498.775888 94.9110366,522.395939 94.9110366,522.395939 C94.9110366,522.395939 92.7164634,539.128934 94.1795122,543.533249 C95.642561,547.937563 94.4687195,580.349239 94.4687195,580.349239 C94.4687195,580.349239 102.549512,586.658122 104.676037,591.504569 C106.802561,596.351015 104.386829,609.546954 104.386829,609.546954 C104.386829,609.546954 80.8929878,621.297462 70.4645122,618.219543 C60.0360366,615.141624 64.3060976,597.37132 64.3060976,597.37132 C64.3060976,597.37132 57.2630488,585.637817 57.2630488,581.097462 C56.7427423,574.892011 55.9080737,568.716913 54.7622561,562.595939 C45.8138415,546.169036 49.3353659,506.258122 47.8723171,503.078173 C46.4092683,499.898223 50.9515244,487.773604 54.6771951,482.4 C58.4028659,477.026396 56.8887805,462.3 54.6771951,458.031726 C52.4656098,453.763452 56.8887805,439.105076 56.8887805,439.105076 C56.8887805,439.105076 52.6357317,410.638579 52.7718293,406.234264 C52.9079268,401.829949 49.1142073,388.787056 49.1142073,388.787056 C49.1142073,388.787056 45.2864634,381.985025 46.1710976,379.978426 C47.0557317,377.971827 43.2279878,372.649239 44.2657317,370.302538 C45.3034756,367.955838 43.3810976,360.76269 41.4757317,356.494416 C40.0535302,352.089956 39.0063869,347.573195 38.3454878,342.992386 C37.4438415,337.890863 36.7803659,333.469543 36.7803659,333.469543 L61.0057317,313.947716 L121.092805,298.18401 L143.855122,290.854822 L165.970976,325.766244 C165.970976,325.766244 168.25061,329.422335 170.275061,333.639594 C171.97628,337.261675 173.575427,341.308883 173.303232,343.84264 C172.936756,347.020836 173.662671,350.229116 175.361707,352.940355 C175.361707,352.940355 188.580183,394.755838 188.273963,406.778426 C187.967744,418.801015 192.969329,445.226904 192.969329,445.226904 C192.969329,445.226904 198.515305,462.23198 195.282988,467.078426 Z" id="Path" fill="#192534"></path>
                <path d="M105.86689,126.959898 C104.93122,126.568782 41.067439,100.210914 49.8627439,94.9733503 C55.0854878,91.8614213 61.5160976,78.6824873 65.9052439,68.3604061 C68.9844512,61.1672589 71.0089024,55.3515228 71.0089024,55.3515228 C71.0089024,55.3515228 122.266646,46.2538071 103.9275,77.6621827 C101.033242,82.473654 98.8555053,87.6808489 97.4628659,93.119797 C92.2741463,114.512183 105.424573,126.568782 105.86689,126.959898 Z" id="Path" fill="#FEC2BE"></path>
                <path d="M135.825366,56.2357868 C135.829869,73.1623139 123.972709,87.7783412 107.40346,91.270767 C90.8342106,94.7631927 74.0825056,86.1772718 67.2492073,70.6901015 C65.2282486,66.13976 64.1905851,61.2143693 64.2040244,56.2357868 C64.1938729,38.3926429 77.3316119,23.2667201 95.0068232,20.7714836 C112.682034,18.2762472 129.496617,29.1737552 134.430366,46.3218274 C135.363489,49.5436035 135.833198,52.8817191 135.825366,56.2357868 Z" id="Path" fill="#FEC2BE"></path>
                <path d="M172.231463,330.323604 C167.536098,333.265482 165.766829,341.172843 165.766829,341.172843 C165.766829,341.172843 148.159207,353.212437 149.333049,345.577157 C150.50689,337.941878 140.231524,307.145685 140.231524,307.145685 L141.405366,349.097208 C141.405366,349.097208 85.0439634,346.461421 80.9270122,342.295178 C76.810061,338.128934 52.7548171,330.272589 52.7548171,330.272589 C52.7548171,330.272589 31.8978659,347.005584 28.0871341,345.577157 C24.2764024,344.148731 34.8920122,315.648223 34.8920122,315.648223 L45.7457927,148.998477 C45.7457927,148.998477 42.8196951,99.4116751 47.2258537,97.6431472 C47.9024694,97.3704812 48.5247394,96.9788456 49.0631707,96.486802 C51.9722561,93.8850254 52.839878,88.5964467 53.095061,84.1411168 C53.3842683,78.8695431 60.4273171,81.5053299 60.4273171,81.5053299 L56.327378,86.7939086 L92.6994512,108.900508 L93.0226829,109.087563 C94.4408526,108.346443 95.9006615,107.687817 97.3948171,107.114975 C100.610122,105.873604 104.897195,104.700254 107.704207,105.856599 C109.259972,106.636621 110.585206,107.808904 111.548963,109.257614 C113.624615,112.374825 115.288577,115.747081 116.499512,119.290609 L129.598902,141.635279 C129.598902,141.635279 136.40378,171.275127 136.40378,172.448477 C136.40378,173.621827 138.462256,200.608883 140.809939,203.550761 C143.157622,206.49264 145.505305,221.151015 144.620671,225.55533 C143.736037,229.959645 146.08372,246.403553 146.08372,246.403553 C155.780671,254.310914 160.765244,281.314975 160.765244,281.314975 C160.765244,281.314975 176.07622,311.55 177.199024,315.070051 C178.321829,318.590102 176.926829,327.381726 172.231463,330.323604 Z" id="Path" fill="#FFFFFF"></path>
                <ellipse id="Oval" fill="#192534" cx="97.3607927" cy="133.115736" rx="2.34768293" ry="2.34670051"></ellipse>
                <ellipse id="Oval" fill="#192534" cx="115.172561" cy="196.51066" rx="2.34768293" ry="2.34670051"></ellipse>
                <ellipse id="Oval" fill="#192534" cx="135.332012" cy="260.670812" rx="2.34768293" ry="2.34670051"></ellipse>
                <ellipse id="Oval" fill="#192534" cx="135.927439" cy="330.51066" rx="2.34768293" ry="2.34670051"></ellipse>
                <ellipse id="Oval" fill="#192534" cx="107.738232" cy="163.04467" rx="2.34768293" ry="2.34670051"></ellipse>
                <ellipse id="Oval" fill="#192534" cx="123.593598" cy="228.191117" rx="2.34768293" ry="2.34670051"></ellipse>
                <ellipse id="Oval" fill="#192534" cx="139.057683" cy="292.164213" rx="2.34768293" ry="2.34670051"></ellipse>
                <ellipse id="Oval" fill="#192534" cx="135.536159" cy="338.332995" rx="2.34768293" ry="2.34670051"></ellipse>
                <path d="M47.9403659,97.9152284 C47.9403659,97.9152284 48.3316463,94.3781726 43.245,100.448985 C38.1583537,106.519797 28.5634756,111.791371 28.5634756,111.791371 C28.5634756,111.791371 6.83890244,127.095939 5.66506098,134.10203 C4.49121951,141.108122 -2.55182927,171.666244 1.15682927,181.835279 C4.8654878,192.004315 33.2588415,240.723858 33.2588415,240.723858 C33.2588415,240.723858 25.8245122,249.549492 27.5257317,259.888579 C29.2269512,270.227665 31.4555488,284.545939 30.4688415,287.674873 C29.4821341,290.803807 31.6426829,298.626142 28.3253049,301.363959 C25.0079268,304.101777 21.5204268,308.795178 31.8468293,315.070051 C31.8468293,315.070051 33.8032317,320.341624 32.0339634,321.514975 C30.2646951,322.688325 58.062622,334.829949 69.0184756,328.317005 C79.9743293,321.804061 99.7595122,270.21066 100.150793,258.596193 C100.542073,246.981726 94.077439,208.90736 90.5559146,199.911675 C87.0343902,190.91599 76.4357927,156.021574 71.927561,148.182234 C67.4193293,140.342893 47.9403659,97.9152284 47.9403659,97.9152284 Z" id="Path" fill="#192534"></path>
                <path d="M96.6803049,104.564213 C96.6803049,104.564213 108.912073,97.9152284 122.623902,114.920305 C122.623902,114.920305 132.593049,120.6 135.536159,121.977411 C138.479268,123.354822 141.796646,159.72868 141.796646,159.72868 C141.796646,159.72868 148.26128,175.37335 146.492012,184.386041 C144.722744,193.398731 151.595671,224.279949 151.595671,224.279949 C151.595671,224.279949 162.959817,279.852538 162.568537,281.417005 C162.177256,282.981472 151.017256,264.003807 151.20439,254.617005 C151.391524,245.230203 141.813659,215.879442 140.452683,214.110914 C139.091707,212.342386 129.683963,162.075381 129.683963,162.075381 C129.683963,162.075381 122.045488,140.751015 117.162988,133.710914 C112.280488,126.670812 106.190122,113.304822 103.655305,111.009137 C101.4808,109.301209 99.0296019,107.978346 96.4081098,107.09797 L96.6803049,104.564213 Z" id="Path" fill="#192534"></path>
                <path d="M214.506768,645.767766 C213.04372,651.787563 192.492988,652.365736 182.659939,650.750254 C172.82689,649.134772 152.412256,643.26802 152.412256,643.26802 C152.412256,643.26802 130.993902,641.227411 124.682378,638.574619 C118.370854,635.921827 123.355427,629.187817 123.355427,629.187817 L123.355427,628.558629 C123.202317,626.109898 122.777012,617.199239 124.291098,614.801523 C125.992317,612.029695 125.022622,602.89797 125.022622,602.89797 C125.022622,602.89797 155.406402,608.764721 155.984817,605.975888 C156.563232,603.187056 161.27561,599.173858 163.470183,598.340609 C165.664756,597.50736 167.297927,605.686802 167.297927,605.686802 C167.297927,605.686802 181.094817,617.420305 181.979451,621.671574 C182.864085,625.922843 192.544024,628.133503 192.544024,628.133503 C192.544024,628.133503 207.225549,632.231726 211.03628,634.28934 C213.288781,635.350896 214.823735,637.510538 215.085183,639.986041 C215.250483,641.932445 215.054383,643.892624 214.506768,645.767766 Z" id="Path" fill="#FFFFFF"></path>
                <path d="M74.5304268,58.1573604 C76.9631707,54.7563452 80.4166463,51.1682741 84.5506098,51.7974619 C87.3907026,52.4554781 89.6543093,54.5946016 90.4708537,57.392132 C91.2671495,60.1514328 91.521341,63.038764 91.2193902,65.8946701 C91.1547949,66.2691879 91.2403595,66.6540673 91.457561,66.9659898 C91.7807927,67.3060914 92.3251829,67.2550761 92.8015244,67.2380711 C95.0981707,67.2380711 97.3948171,68.6494924 99.6064024,67.9862944 C101.817988,67.3230964 103.008841,64.5852792 103.468171,62.1875635 C103.9275,59.7898477 104.505915,57.0860406 106.581402,55.7936548 C108.65689,54.501269 111.429878,55.0624365 113.250183,53.5149746 C116.074207,51.1002538 114.08378,45.7436548 116.839756,43.2269036 C118.96628,41.322335 122.351707,42.4106599 124.784451,43.8901015 C127.217195,45.3695431 129.88811,47.2911168 132.67811,46.4918782 C133.588777,46.1616848 134.480448,45.7813221 135.349024,45.3525381 C139.704146,43.6520305 145.352195,46.5088832 148.95878,43.5329949 C150.262321,42.2371078 151.196119,40.616854 151.66372,38.8395939 C152.653115,36.4437379 153.322351,33.928005 153.654146,31.3573604 C153.961514,28.7649768 153.247677,26.1547667 151.66372,24.0791878 C149.333049,21.3243655 145.403232,20.6781726 142.426098,18.6205584 C140.006908,16.7262983 137.998451,14.3599721 136.522866,11.6654822 C135.048208,8.97036062 133.107123,6.55797354 130.789756,4.54035533 C128.391072,2.5180861 125.065074,2.00005095 122.164573,3.19695431 C121.304625,3.79481185 120.349865,4.24324632 119.340549,4.52335025 C118.243001,4.54186696 117.162962,4.24689773 116.227317,3.67309645 C106.02,-1.12233503 94.1965244,-0.272081218 83.0365244,1.15634518 C78.5378426,1.52500338 74.1241037,2.59211898 69.9541463,4.31928934 C65.7513326,6.10483425 62.534384,9.63082303 61.1418293,13.9781726 C60.2231707,17.3791878 60.9206707,21.1713198 59.8318902,24.5553299 C59.0833537,26.8680203 57.5522561,28.8406091 56.6846341,31.1022843 C54.319939,37.292132 57.1609756,44.0941624 58.3858537,50.6071066 C59.6957927,57.7322335 59.0323171,65.435533 62.0604878,72.1695431 C62.6559146,73.4959391 63.3193902,75.8086294 64.8164634,74.9413706 C65.9222561,74.2951777 66.9940244,70.5370558 67.6234756,69.3637056 C69.6921446,65.4893118 71.998877,61.7466996 74.5304268,58.1573604 Z" id="Path" fill="#192534"></path>
                <path d="M150.404817,226.830711 C150.404817,226.830711 173.694512,211.526142 184.956585,219.110406 C196.218659,226.69467 214.608841,237.305838 196.507866,245.026142 C178.40689,252.746447 153.415976,251.25 153.415976,251.25 L150.404817,226.830711 Z" id="Path" fill="#FEC2BE"></path>
                <path d="M149.707317,227.494818 C149.707317,227.494818 172.997012,212.190249 184.259085,219.774513 C195.521159,227.358777 213.911341,237.969945 195.810366,245.690249 C177.70939,253.410554 152.718476,251.914107 152.718476,251.914107 L149.707317,227.494818 Z" id="Path-Copy" fill="#FEC2BE"></path>
                <path d="M8.91439024,172.839594 L3.70865854,187.906091 C3.70865854,187.906091 16.2296341,234.46599 22.0988415,244.243909 C27.9680488,254.021827 36.5081707,266.554569 36.5081707,266.554569 C46.3136291,270.96677 57.2183335,272.335211 67.8106098,270.482741 C84.6526829,267.081726 133.76689,258.341117 133.76689,258.341117 C136.131633,258.769318 138.541065,257.868607 140.04439,255.994416 C142.187927,252.848477 153.415976,251.25 153.415976,251.25 C153.415976,251.25 166.328232,232.544416 150.472866,224.654061 C150.472866,224.654061 148.516463,228.956345 140.112439,226.014467 C131.708415,223.072589 129.139573,228.361168 129.139573,228.361168 C129.139573,228.361168 115.444756,231.098985 107.80628,230.061675 C100.167805,229.024365 81.1992073,228.684264 79.2428049,227.119797 C78.2127174,226.207774 76.6390359,226.298964 75.7212805,227.323858 C73.4451757,226.505013 71.3230722,225.309314 69.4437805,223.786802 C67.8786585,222.086294 65.735122,225.759391 65.735122,225.759391 C65.735122,225.759391 62.9961585,224.177919 63.7787195,222.222335 C64.5612805,220.266751 61.2268902,212.835533 61.2268902,212.835533 C60.3442445,209.991396 60.1460606,206.979095 60.6484756,204.043909 C61.6181707,200.115736 55.7489634,186.035533 55.7489634,186.035533 C55.6744133,183.663608 55.9379081,181.293147 56.5315244,178.995431 C57.5182317,175.475381 49.0971951,168.435279 49.0971951,168.435279 C49.0971951,168.435279 40.8803049,128.524365 23.4598171,141.635279 C6.03932927,154.746193 8.91439024,172.839594 8.91439024,172.839594 Z" id="Path" fill="#192534"></path>
                <path d="M103.093902,668.384518 C77.2693902,673.230964 72.5570122,653.420051 72.5570122,653.420051 C72.5570122,653.420051 69.3417073,635.802792 68.1678659,634.493401 C67.8622119,633.980958 67.7880346,633.363073 67.9637195,632.792893 L74.1731707,650.614213 C74.1731707,650.614213 79.2768293,661.327411 98.3985366,659.711929 C109.252317,658.793655 114.611159,656.787056 117.197012,655.205584 C117.988555,657.141859 118.625663,659.137675 119.102378,661.174365 C120.565427,667.347208 103.093902,668.384518 103.093902,668.384518 Z" id="Path" fill="#000000" opacity="0.1"></path>
                <path d="M82.9854878,640.496193 C82.9854878,640.496193 89.450122,640.649239 89.892439,635.39467 L82.9854878,640.496193 Z" id="Path" fill="#000000" opacity="0.1"></path>
                <path d="M49.0291463,97.9152284 C49.0291463,97.9152284 49.4204268,94.3781726 44.3337805,100.448985 C39.2471341,106.519797 29.6522561,111.791371 29.6522561,111.791371 C29.6522561,111.791371 7.92768293,127.095939 6.75384146,134.10203 C5.58,141.108122 -1.46304878,171.666244 2.24560976,181.835279 C5.95426829,192.004315 34.3306098,240.723858 34.3306098,240.723858 C34.3306098,240.723858 26.8962805,249.532487 28.6655488,259.888579 C30.4348171,270.24467 32.5783537,284.545939 31.5916463,287.674873 C30.604939,290.803807 32.7654878,298.626142 29.4481098,301.363959 C26.1307317,304.101777 22.6432317,308.795178 32.9696341,315.070051 C32.9696341,315.070051 34.9260366,320.341624 33.1567683,321.514975 C31.3875,322.688325 59.1854268,334.829949 70.1412805,328.317005 C81.0971341,321.804061 100.882317,270.21066 101.273598,258.596193 C101.664878,246.981726 95.2002439,208.90736 91.6787195,199.911675 C88.1571951,190.91599 77.592622,155.885533 73.0843902,148.063198 C68.5761585,140.240863 49.0291463,97.9152284 49.0291463,97.9152284 Z" id="Path" fill="#000000" opacity="0.1"></path>
                <path d="M96.8334146,104.564213 C96.8334146,104.564213 107.738232,97.9152284 121.450061,114.920305 C121.450061,114.920305 131.419207,120.6 134.362317,121.977411 C137.305427,123.354822 140.622805,159.72868 140.622805,159.72868 C140.622805,159.72868 147.087439,175.37335 145.318171,184.386041 C143.548902,193.398731 150.421829,224.279949 150.421829,224.279949 C150.421829,224.279949 161.785976,279.852538 161.394695,281.417005 C161.003415,282.981472 149.826402,264.003807 150.013537,254.651015 C150.200671,245.298223 140.622805,215.913452 139.261829,214.144924 C137.900854,212.376396 128.49311,162.109391 128.49311,162.109391 C128.49311,162.109391 120.854634,140.717005 115.989146,133.710914 C111.123659,126.704822 105.01628,113.304822 102.481463,111.009137 C100.650085,109.427756 98.6056851,108.111187 96.4081098,107.09797 L96.8334146,104.564213 Z" id="Path" fill="#000000" opacity="0.1"></path>
                <path d="M134.209207,374.043655 C130.806768,381.491878 127.897683,418.886041 125.94128,430.755584 C123.15128,425.994162 119.782866,420.280457 118.660061,418.511929 C117.214024,416.233249 113.743537,406.608376 111.855183,401.064721 C114.066768,395.691117 120.174146,380.284518 120.174146,374.638832 C120.174146,367.734772 131.334146,359.079188 131.334146,359.079188 C135.440367,362.914803 136.601897,368.960476 134.209207,374.043655 Z" id="Path" fill="#000000" opacity="0.1"></path>
                <path d="M59.3555488,488.929949 C59.3555488,488.929949 85.180061,477.927665 92.8185366,485.698985 C100.457012,493.470305 59.3555488,488.929949 59.3555488,488.929949 Z" id="Path" fill="#000000" opacity="0.1"></path>
                <path d="M73.8839634,493.334264 C73.8839634,493.334264 47.7532317,508.009645 56.7186585,510.509391 C65.6840854,513.009137 73.8839634,493.334264 73.8839634,493.334264 Z" id="Path" fill="#000000" opacity="0.1"></path>
                <path d="M151.969939,480.563452 C151.969939,480.563452 140.826951,481.311675 145.08,483.50533 C149.333049,485.698985 151.969939,480.563452 151.969939,480.563452 Z" id="Path" fill="#000000" opacity="0.1"></path>
                <path d="M165.919939,483.947462 C165.766829,484.67868 133.477683,495.102792 139.789207,499.796193 C146.100732,504.489594 165.919939,483.947462 165.919939,483.947462 Z" id="Path" fill="#000000" opacity="0.1"></path>
                <path d="M63.2513415,573.751269 C68.0998171,573.003046 95.1151829,560.538325 84.5335976,569.482995 C78.7775495,574.735289 70.5888115,576.377585 63.2513415,573.751269 Z" id="Path" fill="#000000" opacity="0.1"></path>
                <path d="M76.5208537,583.580203 C76.5208537,583.580203 78.8685366,592.677919 87.8339634,591.504569 C96.7993902,590.331218 76.5208537,583.580203 76.5208537,583.580203 Z" id="Path" fill="#000000" opacity="0.1"></path>
                <path d="M69.0354878,602.064721 C70.6516463,601.622589 89.892439,592.813959 90.3177439,596.963198 C90.7430488,601.112437 71.9785976,608.254569 70.5155488,606.060914 C69.6633099,604.890581 69.151114,603.507643 69.0354878,602.064721 Z" id="Path" fill="#000000" opacity="0.1"></path>
                <path d="M131.300122,591.504569 C133.647805,591.351523 155.661585,584.311421 160.067744,590.620305 L131.300122,591.504569 Z" id="Path" fill="#000000" opacity="0.1"></path>
                <path d="M151.238415,595.602792 C151.238415,595.602792 155.066159,592.201777 158.87689,593.902284 C162.687622,595.602792 151.238415,595.602792 151.238415,595.602792 Z" id="Path" fill="#000000" opacity="0.1"></path>
                <path d="M102.515488,631.993655 C103.027492,634.526703 104.978745,636.523737 107.500061,637.095178 L102.515488,631.993655 Z" id="Path" fill="#000000" opacity="0.1"></path>
                <path d="M214.506768,645.767766 C213.04372,651.787563 192.492988,652.365736 182.659939,650.750254 C172.82689,649.134772 152.412256,643.26802 152.412256,643.26802 C152.412256,643.26802 130.993902,641.227411 124.682378,638.574619 C118.370854,635.921827 123.355427,629.187817 123.355427,629.187817 L123.355427,628.558629 L154.079451,635.36066 C154.079451,635.36066 169.203293,641.822589 178.883232,641.822589 C187.389329,641.822589 206.289878,645.223604 215.085183,640.122081 C215.233776,642.023435 215.03783,643.935987 214.506768,645.767766 Z" id="Path" fill="#000000" opacity="0.1"></path>
                <path d="M172.962988,622.606853 C172.962988,622.606853 171.499939,632.282741 165.630732,635.513706 L172.962988,622.606853 Z" id="Path" fill="#000000" opacity="0.1"></path>
                <path d="M134.430366,46.3218274 C133.886186,46.6156745 133.316854,46.8603848 132.729146,47.0530457 C129.973171,47.784264 127.285244,45.9307107 124.835488,44.451269 C122.385732,42.9718274 119.017317,41.8664975 116.890793,43.7880711 C114.134817,46.2878173 116.142256,51.6614213 113.30122,54.0761421 C111.497927,55.606599 108.639878,55.0794416 106.632439,56.3378173 C104.625,57.5961929 104.029573,60.3510152 103.519207,62.7317259 C103.008841,65.1124365 102.005122,67.8332487 99.6744512,68.5304569 C97.3437805,69.227665 95.1662195,67.6972081 92.8695732,67.7822335 C92.3932317,67.7822335 91.8488415,67.8672589 91.5256098,67.5101523 C91.3094104,67.2042253 91.2237302,66.8249432 91.287439,66.4558376 C91.5872562,63.6009513 91.3389689,60.7150978 90.5559146,57.9532995 C89.7115599,55.1539997 87.433827,53.0199241 84.5846341,52.3586294 C80.4676829,51.7294416 76.9971951,55.3345178 74.5644512,58.735533 C72.0187081,62.3104741 69.7004716,66.0419546 67.6234756,69.907868 C67.4950075,70.1559872 67.3813929,70.4115131 67.2832317,70.6730964 C65.262273,66.1227549 64.2246095,61.1973643 64.2380488,56.2187817 C64.2278973,38.3756378 77.3656362,23.249715 95.0408476,20.7544785 C112.716059,18.2592421 129.530642,29.1567501 134.46439,46.3048223 L134.430366,46.3218274 Z" id="Path" fill="#000000" opacity="0.1"></path>
                <path d="M10.0882317,172.839594 L4.79743902,187.906091 C4.79743902,187.906091 17.3184146,234.46599 23.187622,244.243909 C29.0568293,254.021827 37.7330488,266.554569 37.7330488,266.554569 C47.5385071,270.96677 58.4432116,272.335211 69.0354878,270.482741 C85.877561,267.081726 134.991768,258.341117 134.991768,258.341117 C137.356511,258.769318 139.765943,257.868607 141.269268,255.994416 C143.412805,252.865482 154.572805,251.301015 154.572805,251.301015 C154.572805,251.301015 167.485061,232.595431 151.629695,224.705076 C151.629695,224.705076 149.673293,229.00736 141.269268,226.065482 C132.865244,223.123604 130.296402,228.412183 130.296402,228.412183 C130.296402,228.412183 116.686646,231.15 108.96311,230.11269 C101.239573,229.075381 82.3560366,228.735279 80.3996341,227.170812 C79.8952749,226.73562 79.2380309,226.519602 78.5737136,226.570682 C77.9093964,226.621762 77.2929365,226.935716 76.8610976,227.442893 C74.5849928,226.624048 72.4628893,225.42835 70.5835976,223.905838 C69.0184756,222.20533 66.874939,225.878426 66.874939,225.878426 C66.874939,225.878426 64.1359756,224.296954 64.9185366,222.341371 C65.7010976,220.385787 62.3667073,212.954569 62.3667073,212.954569 C61.4840616,210.110431 61.2858776,207.098131 61.7882927,204.162944 C62.7579878,200.234772 56.8887805,186.154569 56.8887805,186.154569 C56.8142304,183.782644 57.0777252,181.412182 57.6713415,179.114467 C58.6580488,175.594416 50.2370122,168.554315 50.2370122,168.554315 C50.2370122,168.554315 42.020122,128.643401 24.5996341,141.754315 C7.17914634,154.865228 10.0882317,172.839594 10.0882317,172.839594 Z" id="Path" fill="#000000" opacity="0.1"></path>
                <path d="M92.6484146,110.107868 C89.0758537,115.396447 78.7834756,122.827665 78.7834756,122.827665 L49.0121341,97.6941624 C51.9212195,95.0923858 52.7888415,89.8038071 53.0440244,85.3654822 C53.3332317,80.0769036 60.3762805,82.7126904 60.3762805,82.7126904 L59.5256707,83.8180203 C58.6989636,84.881888 58.3655769,86.2477674 58.6092274,87.5726717 C58.852878,88.897576 59.6504211,90.0556508 60.8015854,90.7560914 L92.6484146,110.107868 Z" id="Path" fill="#000000" opacity="0.1"></path>
                <path d="M92.6484146,108.866497 C89.0758537,114.155076 78.7834756,121.569289 78.7834756,121.569289 L49.0121341,96.5038071 C51.9212195,93.9020305 52.7888415,88.6134518 53.0440244,84.1581218 C53.3332317,78.8865482 60.3762805,81.522335 60.3762805,81.522335 L59.5256707,82.627665 C58.6989636,83.6915327 58.3655769,85.057412 58.6092274,86.3823163 C58.852878,87.7072206 59.6504211,88.8652955 60.8015854,89.565736 L92.6484146,108.866497 Z" id="Path" fill="#FFFFFF"></path>
                <path d="M106.989695,111.060152 C103.144939,115.651523 97.7010366,120.872081 97.9562195,118.253299 C98.2114024,115.634518 95.0641463,111.451269 92.852561,108.832487 C96.0678659,107.591117 100.354939,106.434772 103.161951,107.591117 C104.723006,108.387766 106.044058,109.585018 106.989695,111.060152 Z" id="Path" fill="#FFFFFF"></path>
                <path d="M40.0296951,131.160152 C40.0296951,131.160152 56.8547561,149.746701 56.2763415,162.075381 C56.2763415,162.075381 56.4464634,142.128426 40.0296951,131.160152 Z" id="Path" fill="#000000" opacity="0.1"></path>
                <path d="M63.2513415,161.684264 C63.2513415,162.279442 74.5984756,204.537056 74.020061,209.808629 C73.4416463,215.080203 77.337439,230.741878 77.337439,230.741878 L82.6282317,229.381472 C82.6282317,229.381472 78.5112805,207.66599 77.7287195,199.639594 C76.9461585,191.613198 63.2513415,161.684264 63.2513415,161.684264 Z" id="Path" fill="#000000" opacity="0.1"></path>
                <path d="M67.8106098,282.199239 C67.4193293,282.777411 40.9993902,312.72335 48.4337195,314.86599 C55.8680488,317.008629 67.8106098,282.199239 67.8106098,282.199239 Z" id="Path" fill="#000000" opacity="0.1"></path>
                <path d="M46.0860366,274.563959 C45.507622,274.955076 35.5214634,296.092386 34.347622,290.41269 C33.1737805,284.732995 42.9557927,305.870305 44.554939,290.225635 L46.0860366,274.563959 Z" id="Path" fill="#000000" opacity="0.1"></path>
                <path d="M136.131585,235.826396 C135.927439,237.203807 131.623354,242.628426 133.188476,243.648731 C134.753598,244.669036 137.305427,244.039848 134.889695,247.185787 C132.473963,250.331726 132.746159,255.008122 134.31128,254.412944 C135.876402,253.817766 138.428232,246.79467 138.428232,244.039848 C138.047901,241.208722 137.274926,238.444347 136.131585,235.826396 Z" id="Path" fill="#000000" opacity="0.1"></path>
                <path d="M106.41128,112.82868 C102.566524,117.420051 97.122622,122.623604 97.3778049,120.021827 C97.6329878,117.420051 94.1284756,111.638325 91.8828659,109.053553 C95.3709147,107.948176 99.1306489,108.056066 102.549512,109.359645 C104.129275,110.142174 105.464743,111.341828 106.41128,112.82868 Z" id="Path" fill="#000000" opacity="0.1"></path>
                <path d="M90.4708537,53.9911168 C89.6305475,51.1989847 87.3584862,49.0706296 84.5165854,48.4134518 C80.382622,47.784264 76.9291463,51.3893401 74.4964024,54.7903553 C71.9506593,58.3652964 69.6324228,62.096777 67.5554268,65.9626904 C66.9259756,67.1360406 65.8542073,70.8771574 64.7484146,71.5233503 C63.2513415,72.4076142 62.5878659,70.0779188 61.992439,68.7515228 C58.9642683,62.0345178 59.6277439,54.3142132 58.3178049,47.1890863 C57.2583148,43.0472786 56.4178815,38.8525469 55.8,34.622335 C55.3406707,39.7238579 57.3481098,45.114467 58.3178049,50.3180203 C59.6277439,57.4431472 58.9642683,65.1634518 61.992439,71.8974619 C62.5878659,73.2068528 63.2513415,75.5365482 64.7484146,74.6522843 C65.8542073,74.0060914 66.9259756,70.2649746 67.5554268,69.0916244 C69.6324228,65.225711 71.9506593,61.4942304 74.4964024,57.9192893 C76.9291463,54.5182741 80.382622,50.913198 84.5165854,51.5423858 C87.3584862,52.1995636 89.6305475,54.3279187 90.4708537,57.1200508 C90.9478901,58.5420793 91.2171884,60.0254637 91.2704268,61.5243655 C91.4766264,58.9854081 91.2054297,56.4303045 90.4708537,53.9911168 Z" id="Path" fill="#000000"></path>
                <path d="M151.714756,35.4725888 C151.247156,37.249849 150.313358,38.8701027 149.009817,40.1659898 C145.437256,43.1588832 139.789207,40.3360406 135.400061,42.0025381 C134.531235,42.4258005 133.639556,42.8004895 132.729146,43.1248731 C129.973171,43.8730964 127.285244,42.0195431 124.835488,40.5401015 C122.385732,39.0606599 119.017317,37.9553299 116.890793,39.8769036 C114.134817,42.3766497 116.142256,47.7332487 113.30122,50.1649746 C111.480915,51.6954315 108.639878,51.1682741 106.632439,52.4266497 C104.625,53.6850254 104.029573,56.4398477 103.519207,58.8205584 C103.008841,61.201269 102.005122,63.9220812 99.657439,64.6192893 C97.3097561,65.3164975 95.1662195,63.7860406 92.852561,63.871066 C92.3762195,63.871066 91.8318293,63.9560914 91.5085976,63.5989848 C91.4360646,63.5128467 91.3785539,63.4151195 91.3384756,63.3098985 C91.3384756,64.092132 91.3384756,64.8913706 91.3384756,65.6736041 C91.2747668,66.0427097 91.360447,66.4219917 91.5766463,66.7279188 C91.899878,67.0850254 92.4442683,67.0170051 92.9206098,67 C95.2172561,67 97.5139024,68.4114213 99.7254878,67.7482234 C101.937073,67.0850254 103.127927,64.3472081 103.587256,61.9664975 C104.046585,59.5857868 104.625,56.8649746 106.700488,55.5555838 C108.775976,54.2461929 111.548963,54.8243655 113.369268,53.2939086 C116.210305,50.8791878 114.202866,45.5055838 116.958841,43.0908629 C119.085366,41.1692893 122.470793,42.2746193 124.903537,43.7540609 C127.33628,45.2335025 130.007195,47.1550761 132.797195,46.3558376 C133.732866,46.1007614 134.498415,45.556599 135.46811,45.2164975 C139.823232,43.5159898 145.47128,46.3728426 149.077866,43.3799492 C150.356641,42.0761402 151.266545,40.4566018 151.714756,38.6865482 C152.701968,36.2958505 153.371153,33.7860273 153.705183,31.2213198 C153.798715,30.3508959 153.798715,29.472962 153.705183,28.6025381 C153.314261,30.9628201 152.646169,33.2687696 151.714756,35.4725888 Z" id="Path" fill="#000000"></path>
            </g>
        </g>
    </g>
</svg>